<svg width="430" height="932" viewBox="0 0 430 932" fill="none" xmlns="http://www.w3.org/2000/svg">
<g clip-path="url(#clip0_375_3940)">
<rect width="430" height="932" rx="32" fill="url(#paint0_linear_375_3940)"/>
<path opacity="0.2" d="M34.3685 639.775C43.9265 668.208 34.3241 680.034 45.5717 702.781C47.8783 707.48 59.9803 731.731 81.078 733.139C108.402 734.826 136.262 697.141 148.013 668.161C169.693 614.881 147.325 565.363 141.333 551.908C136.834 541.949 116.706 500.19 70.2565 484.296C41.7844 474.599 -17.674 467.448 -47.0254 508.763C-65.9362 535.358 -70.0216 578.401 -55.7756 591.159C-43.5425 602.162 -26.6121 582.604 -2.37167 592.212C21.5593 601.606 31.559 631.257 34.3685 639.775Z" fill="#B7D1E8"/>
<path d="M462.615 601.438C434.865 558.201 376.371 567.985 342.367 596.219C325.277 610.383 311.534 628.367 297.087 645.326C283.961 660.701 267.488 681.48 246.345 683.064C237.007 683.717 230.753 677.008 222.472 674.212C198.775 666.199 177.456 691.171 173.844 714.001C166.532 760.591 208.113 788.173 244.583 799.914C330.298 827.495 448.784 783.421 472.217 684.462C478.648 657.812 477.767 624.919 462.615 601.438Z" fill="url(#paint1_linear_375_3940)"/>
<path d="M-72.0718 136.102C-72.4214 120.28 -71.8095 103.621 -66.2149 88.6372C-61.0573 74.9562 -48.2071 58.8554 -33.1716 58.0178C-23.4684 57.4594 -18.6605 70.2097 -12.891 76.3522C23.9112 115.906 80.7317 90.2194 122.954 114.789C130.384 119.071 137.028 125.958 139.213 134.892C141.486 144.199 138.514 154.064 134.405 162.627C124.702 182.729 109.579 197.713 94.1938 212.79C80.6443 226.006 57.2167 239.78 55.6433 261.651C55.0313 270.493 61.4127 278.031 63.161 286.314C67.6192 307.999 45.5904 322.052 28.1946 323.728C8.00143 325.682 -13.4155 317.027 -27.1399 300.647C-45.0602 279.241 -50.3926 232.242 -82.6491 228.612C-85.7961 228.24 -89.2927 228.426 -91.8278 226.471C-95.4993 223.679 -95.7615 217.63 -93.751 213.349C-90.7788 206.834 -85.5339 202.181 -81.775 196.224C-71.0228 178.82 -71.6347 157.322 -72.0718 136.102Z" fill="#E9B7B6"/>
<path d="M431.063 207.394C395.244 189.024 355.797 178.514 315.983 177.498C304.361 177.221 295.456 177.687 284.771 182.657C258.953 194.683 249.357 226.516 257.112 254.059C262.47 273.04 274.091 289.226 286.2 304.271C298.308 319.317 311.32 335.521 321.118 353.005C329.417 367.969 335.922 388.613 355.319 389.879C376.689 391.26 389.009 370.903 404.039 358.612C439.322 329.925 477.8 380.972 513.392 358.817C568.323 324.577 505.987 259.617 475.41 235.673C461.525 224.837 446.678 215.4 431.063 207.394Z" fill="url(#paint2_linear_375_3940)" fill-opacity="0.7"/>
<path d="M93.6921 324.193C99.2705 318.446 94.0744 305.72 85.9937 310.045C74.8975 315.656 84.9923 334.234 93.6921 324.193Z" fill="#E4EEF7"/>
<path d="M19.0474 375.524C35.3979 356.943 -3.59153 335.9 -6.54984 362.372C-8.60387 376.02 9.34452 385.779 19.0474 375.524Z" fill="#E4EEF7"/>
<path d="M42.6886 350.243C39.6917 349.747 36.8605 351.775 36.365 354.772C35.8694 357.769 37.8971 360.6 40.894 361.095C43.8909 361.591 46.722 359.563 47.2176 356.566C47.7131 353.569 45.6854 350.738 42.6886 350.243Z" fill="#E4EEF7"/>
<path d="M125.844 739.153C123.701 760.072 144.632 775.668 159.353 786.766C165.49 791.331 173.079 784.218 169.022 777.777C164.056 769.732 159.276 760.847 155.417 751.939C152.511 745.133 150.392 736.81 143.884 732.58C137.585 728.431 126.809 730.069 125.844 739.153Z" fill="url(#paint3_linear_375_3940)"/>
<path d="M89.157 795.615C89.1174 795.929 89.2112 796.196 89.3051 796.463C89.3593 797.043 89.5036 797.667 89.6913 798.201C90.3985 800.426 92.1298 802.365 94.1602 803.45C94.1602 803.45 94.1602 803.45 94.2504 803.494C94.3405 803.537 94.3405 803.537 94.4307 803.58L94.5209 803.623C95.2421 803.969 96.0968 804.269 96.7712 804.481C98.477 804.856 100.399 804.78 102 804.217C104.978 803.095 107.264 800.642 107.974 797.544C108.269 796.466 108.251 795.348 108.1 794.277C108.1 794.277 108.1 794.277 108.143 794.187C107.987 790.12 104.885 786.413 100.846 785.584C96.7169 784.713 92.3647 786.617 90.4145 790.451C89.4556 791.988 88.9944 793.874 89.157 795.615Z" fill="url(#paint4_linear_375_3940)"/>
<path d="M343.4 158.8C351.353 158.8 357.8 152.353 357.8 144.4C357.8 136.447 351.353 130 343.4 130C335.447 130 329 136.447 329 144.4C329 152.353 335.447 158.8 343.4 158.8Z" stroke="url(#paint5_linear_375_3940)" stroke-width="6.3045" stroke-miterlimit="10"/>
<path d="M294.702 155.473C286.709 154.954 280.391 167.162 288.924 170.508C300.391 175.316 307.987 155.584 294.702 155.473Z" fill="#E4EEF7"/>
<path d="M347.607 177.406C349.173 180.008 352.552 180.849 355.155 179.282C357.758 177.716 358.598 174.337 357.032 171.734C355.465 169.131 352.086 168.291 349.483 169.857C346.881 171.424 346.04 174.803 347.607 177.406Z" fill="#E4EEF7"/>
<path d="M71.6181 192.3L70.9302 192.037C64.3417 189.899 58.0013 187.031 52.0248 183.483C47.7869 180.949 44.1705 177.468 41.4528 173.307C36.463 165.126 37.3108 154.18 45.8415 148.913C50.357 146.186 55.9751 145.816 60.8168 147.977L71.6181 192.3Z" fill="white"/>
<path d="M71.5899 192.306L72.0793 191.755C76.9458 186.827 81.2556 181.363 84.9301 175.464C87.5267 171.263 89.1361 166.509 89.635 161.564C90.3016 152.005 84.5131 142.676 74.5156 141.924C69.2516 141.58 64.0933 143.837 60.7886 147.983L71.5899 192.306Z" fill="#F9E6E4"/>
<path d="M72.3154 145.488C76.9601 145.44 80.7536 147.506 81.9349 150.728" stroke="white" stroke-width="2.39151" stroke-linecap="round" stroke-linejoin="round"/>
<path d="M348.136 766.16L347.791 765.509C344.231 759.567 341.34 753.237 339.168 746.635C337.641 741.939 337.204 736.938 337.892 732.016C339.51 722.572 347.345 714.881 357.235 716.52C362.431 717.434 366.907 720.848 369.135 725.66L348.136 766.16Z" fill="white"/>
<path d="M348.111 766.145L348.842 766.052C355.749 765.537 362.589 764.254 369.236 762.224C373.954 760.766 378.292 758.241 381.919 754.843C388.705 748.078 390.476 737.243 383.437 730.104C379.696 726.385 374.326 724.694 369.11 725.645L348.111 766.145Z" fill="#F9E6E4"/>
<path d="M379.436 731.343C382.967 734.36 384.468 738.41 383.239 741.615" stroke="white" stroke-width="2.39151" stroke-linecap="round" stroke-linejoin="round"/>
</g>
<defs>
<linearGradient id="paint0_linear_375_3940" x1="-207" y1="510" x2="215" y2="932" gradientUnits="userSpaceOnUse">
<stop stop-color="#EACBAD"/>
<stop offset="1" stop-color="#E9B7B6"/>
</linearGradient>
<linearGradient id="paint1_linear_375_3940" x1="285.762" y1="841.626" x2="377.102" y2="529.737" gradientUnits="userSpaceOnUse">
<stop stop-color="#F9DABE"/>
<stop offset="1" stop-color="#E9B7D4"/>
</linearGradient>
<linearGradient id="paint2_linear_375_3940" x1="187.769" y1="287.124" x2="462.378" y2="281.454" gradientUnits="userSpaceOnUse">
<stop offset="2.34751e-07" stop-color="#D2B3CF"/>
<stop offset="0.9995" stop-color="#C0B9DB"/>
</linearGradient>
<linearGradient id="paint3_linear_375_3940" x1="175.248" y1="767.609" x2="122.073" y2="749.785" gradientUnits="userSpaceOnUse">
<stop stop-color="#F8D6C1"/>
<stop offset="1" stop-color="#E9B7D4"/>
</linearGradient>
<linearGradient id="paint4_linear_375_3940" x1="107.496" y1="791.335" x2="89.8349" y2="798.826" gradientUnits="userSpaceOnUse">
<stop stop-color="#7FACD6"/>
<stop offset="1" stop-color="#E9B7D4"/>
</linearGradient>
<linearGradient id="paint5_linear_375_3940" x1="330.957" y1="156.794" x2="355.84" y2="132.003" gradientUnits="userSpaceOnUse">
<stop stop-color="#F9DABE"/>
<stop offset="1" stop-color="#E9B7D4"/>
</linearGradient>
<clipPath id="clip0_375_3940">
<rect width="430" height="932" rx="32" fill="white"/>
</clipPath>
</defs>
</svg>
