<svg width="50" height="50" viewBox="0 0 50 50" fill="none" xmlns="http://www.w3.org/2000/svg">
<g filter="url(#filter0_d_157_3859)">
<circle cx="25" cy="21" r="18" fill="url(#paint0_linear_157_3859)"/>
</g>
<path d="M28.2268 20.4996L32.3314 16.651C33.2229 15.8151 33.2229 14.4628 32.3314 13.6269C31.4399 12.791 29.9946 12.791 29.1031 13.6269L24.9985 17.4727L20.8969 13.6269C20.0054 12.791 18.5601 12.791 17.6686 13.6269C16.7771 14.4628 16.7771 15.8151 17.6686 16.651L21.7732 20.4996L17.6686 24.3482C16.7771 25.1842 16.7771 26.5364 17.6686 27.3724C18.1159 27.7917 18.7001 28 19.2843 28C19.8655 28 20.4497 27.7917 20.8969 27.3724L24.9985 23.5266L29.1031 27.3724C29.5503 27.7917 30.1315 28 30.7157 28C31.2999 28 31.8841 27.7917 32.3314 27.3724C33.2229 26.5364 33.2229 25.1842 32.3314 24.3482L28.2268 20.4996Z" fill="white"/>
<defs>
<filter id="filter0_d_157_3859" x="0.3" y="0.3" width="49.4" height="49.4" filterUnits="userSpaceOnUse" color-interpolation-filters="sRGB">
<feFlood flood-opacity="0" result="BackgroundImageFix"/>
<feColorMatrix in="SourceAlpha" type="matrix" values="0 0 0 0 0 0 0 0 0 0 0 0 0 0 0 0 0 0 127 0" result="hardAlpha"/>
<feOffset dy="4"/>
<feGaussianBlur stdDeviation="3.35"/>
<feComposite in2="hardAlpha" operator="out"/>
<feColorMatrix type="matrix" values="0 0 0 0 0 0 0 0 0 0 0 0 0 0 0 0 0 0 0.25 0"/>
<feBlend mode="normal" in2="BackgroundImageFix" result="effect1_dropShadow_157_3859"/>
<feBlend mode="normal" in="SourceGraphic" in2="effect1_dropShadow_157_3859" result="shape"/>
</filter>
<linearGradient id="paint0_linear_157_3859" x1="25" y1="3" x2="25" y2="39" gradientUnits="userSpaceOnUse">
<stop stop-color="#E9AB75"/>
<stop offset="1" stop-color="#E78481"/>
</linearGradient>
</defs>
</svg>
