<svg width="85" height="85" viewBox="0 0 85 85" fill="none" xmlns="http://www.w3.org/2000/svg">
<circle cx="42.4331" cy="42.4331" r="42.4331" fill="#F8E3E5"/>
<circle cx="42.4331" cy="42.4331" r="39.781" stroke="url(#paint0_linear_375_3972)" stroke-width="5.30414"/>
<path d="M32.0658 57C32.0658 54.8509 32.3588 52.9574 32.945 51.3193C33.5311 49.6661 34.3201 48.2159 35.3119 46.9685C36.3038 45.7212 37.4234 44.6166 38.6708 43.6548C39.9332 42.693 41.2406 41.8213 42.5932 41.0398C43.6301 40.4387 44.5995 39.8075 45.5012 39.1463C46.4029 38.485 47.1318 37.7411 47.6878 36.9146C48.2439 36.088 48.5219 35.1262 48.5219 34.0291C48.5219 32.6315 48.0184 31.4743 47.0115 30.5575C46.0197 29.6258 44.6671 29.1599 42.9539 29.1599C41.2106 29.1599 39.8355 29.5582 38.8286 30.3547C37.8367 31.1361 37.1078 32.1806 36.6419 33.4881L32.5617 31.6621C33.253 29.6784 34.5304 28.0553 36.394 26.7929C38.2725 25.5305 40.4817 24.8994 43.0215 24.8994C45.1555 24.8994 46.974 25.2901 48.4768 26.0716C49.9947 26.853 51.1519 27.9351 51.9484 29.3177C52.7599 30.6853 53.1657 32.2633 53.1657 34.0516C53.1657 35.9001 52.7824 37.4556 52.016 38.718C51.2646 39.9803 50.2577 41.0924 48.9953 42.0543C47.7479 43.0011 46.3728 43.9103 44.87 44.7819C43.5625 45.5484 42.3903 46.3148 41.3533 47.0813C40.3314 47.8477 39.4748 48.6743 38.7835 49.5609C38.1072 50.4476 37.6413 51.4545 37.3858 52.5817H53.4362V57H32.0658Z" fill="#6F5C63"/>
<defs>
<linearGradient id="paint0_linear_375_3972" x1="14.3936" y1="6.72948" x2="59.6307" y2="80.5668" gradientUnits="userSpaceOnUse">
<stop stop-color="#E88D87"/>
<stop offset="1" stop-color="#EAC4A9"/>
</linearGradient>
</defs>
</svg>
