<svg width="36" height="36" viewBox="0 0 36 36" fill="none" xmlns="http://www.w3.org/2000/svg">
<path d="M13.7358 31.1571V26.557C13.7358 25.387 14.6897 24.4362 15.8715 24.4284H20.2006C21.3881 24.4284 22.3508 25.3814 22.3508 26.557V26.557V31.1714C22.3505 32.1648 23.1514 32.9767 24.1546 33H27.0406C29.9177 33 32.25 30.691 32.25 27.8427V27.8427V14.7568C32.2346 13.6362 31.7032 12.584 30.807 11.8995L20.9366 4.02795C19.2074 2.65735 16.7493 2.65735 15.0201 4.02795L5.19304 11.9138C4.29339 12.5955 3.76108 13.6495 3.75 14.771V27.8427C3.75 30.691 6.08231 33 8.95937 33H11.8454C12.8735 33 13.707 32.1749 13.707 31.1571V31.1571" stroke="#6F5C63" stroke-width="3" stroke-linecap="round" stroke-linejoin="round"/>
</svg>
