<svg width="115" height="115" viewBox="0 0 115 115" fill="none" xmlns="http://www.w3.org/2000/svg">
<g filter="url(#filter0_d_182_3474)">
<circle cx="57.5" cy="52.5" r="37.5" fill="url(#paint0_linear_182_3474)"/>
</g>
<path fill-rule="evenodd" clip-rule="evenodd" d="M57.7557 56.7974C51.9543 56.7974 47 57.6745 47 61.1874C47 64.7002 51.9229 65.6088 57.7557 65.6088C63.5571 65.6088 68.51 64.7302 68.51 61.2188C68.51 57.7074 63.5886 56.7974 57.7557 56.7974Z" stroke="#F8F8F8" stroke-width="3" stroke-linecap="round" stroke-linejoin="round"/>
<path fill-rule="evenodd" clip-rule="evenodd" d="M57.7557 51.7871C61.5628 51.7871 64.6485 48.7 64.6485 44.8929C64.6485 41.0857 61.5628 38 57.7557 38C53.9485 38 50.8614 41.0857 50.8614 44.8929C50.8485 48.6871 53.9142 51.7743 57.7071 51.7871H57.7557Z" stroke="#F8F8F8" stroke-width="3" stroke-linecap="round" stroke-linejoin="round"/>
<defs>
<filter id="filter0_d_182_3474" x="0.799999" y="0.799999" width="113.4" height="113.4" filterUnits="userSpaceOnUse" color-interpolation-filters="sRGB">
<feFlood flood-opacity="0" result="BackgroundImageFix"/>
<feColorMatrix in="SourceAlpha" type="matrix" values="0 0 0 0 0 0 0 0 0 0 0 0 0 0 0 0 0 0 127 0" result="hardAlpha"/>
<feMorphology radius="1" operator="erode" in="SourceAlpha" result="effect1_dropShadow_182_3474"/>
<feOffset dy="5"/>
<feGaussianBlur stdDeviation="10.1"/>
<feComposite in2="hardAlpha" operator="out"/>
<feColorMatrix type="matrix" values="0 0 0 0 0 0 0 0 0 0 0 0 0 0 0 0 0 0 0.25 0"/>
<feBlend mode="normal" in2="BackgroundImageFix" result="effect1_dropShadow_182_3474"/>
<feBlend mode="normal" in="SourceGraphic" in2="effect1_dropShadow_182_3474" result="shape"/>
</filter>
<linearGradient id="paint0_linear_182_3474" x1="57.5" y1="15" x2="57.5" y2="90" gradientUnits="userSpaceOnUse">
<stop stop-color="#E78481"/>
<stop offset="1" stop-color="#EACBAD"/>
</linearGradient>
</defs>
</svg>
