<svg width="39" height="39" viewBox="0 0 39 39" fill="none" xmlns="http://www.w3.org/2000/svg">
<path fill-rule="evenodd" clip-rule="evenodd" d="M21.2944 6.78763L24.264 12.7201C24.555 13.3025 25.1168 13.7063 25.7682 13.7998L32.4112 14.756C34.0525 14.993 34.7056 16.9821 33.5178 18.1219L28.714 22.7377C28.242 23.1916 28.0271 23.8441 28.1387 24.4849L29.2724 31.0015C29.5516 32.6135 27.8359 33.8434 26.3689 33.0807L20.4315 30.0019C19.8494 29.6998 19.1523 29.6998 18.5685 30.0019L12.6311 33.0807C11.1641 33.8434 9.44839 32.6135 9.72927 31.0015L10.8612 24.4849C10.9729 23.8441 10.758 23.1916 10.286 22.7377L5.48223 18.1219C4.29441 16.9821 4.94754 14.993 6.58883 14.756L13.2318 13.7998C13.8832 13.7063 14.4467 13.3025 14.7377 12.7201L17.7056 6.78763C18.4399 5.32079 20.5601 5.32079 21.2944 6.78763Z" stroke="#6F5C63" stroke-width="3" stroke-linecap="round" stroke-linejoin="round"/>
</svg>
