<svg width="75" height="75" viewBox="0 0 75 75" fill="none" xmlns="http://www.w3.org/2000/svg">
<g filter="url(#filter0_d_173_3854)">
<circle cx="37.5" cy="33.5" r="30.5" fill="url(#paint0_linear_173_3854)"/>
</g>
<path d="M42.9675 32.6521L49.9225 26.1308C51.4331 24.7144 51.4331 22.423 49.9225 21.0066C48.4119 19.5902 45.9629 19.5902 44.4523 21.0066L37.4973 27.523L30.5475 21.0066C29.0369 19.5902 26.5879 19.5902 25.0773 21.0066C23.5667 22.423 23.5667 24.7144 25.0773 26.1308L32.0323 32.6521L25.0773 39.1733C23.5667 40.5897 23.5667 42.8811 25.0773 44.2975C25.8352 45.0081 26.8251 45.361 27.815 45.361C28.7997 45.361 29.7896 45.0081 30.5475 44.2975L37.4973 37.7811L44.4523 44.2975C45.2102 45.0081 46.1949 45.361 47.1848 45.361C48.1747 45.361 49.1646 45.0081 49.9225 44.2975C51.4331 42.8811 51.4331 40.5897 49.9225 39.1733L42.9675 32.6521Z" fill="white"/>
<defs>
<filter id="filter0_d_173_3854" x="0.3" y="0.3" width="74.4" height="74.4" filterUnits="userSpaceOnUse" color-interpolation-filters="sRGB">
<feFlood flood-opacity="0" result="BackgroundImageFix"/>
<feColorMatrix in="SourceAlpha" type="matrix" values="0 0 0 0 0 0 0 0 0 0 0 0 0 0 0 0 0 0 127 0" result="hardAlpha"/>
<feOffset dy="4"/>
<feGaussianBlur stdDeviation="3.35"/>
<feComposite in2="hardAlpha" operator="out"/>
<feColorMatrix type="matrix" values="0 0 0 0 0 0 0 0 0 0 0 0 0 0 0 0 0 0 0.25 0"/>
<feBlend mode="normal" in2="BackgroundImageFix" result="effect1_dropShadow_173_3854"/>
<feBlend mode="normal" in="SourceGraphic" in2="effect1_dropShadow_173_3854" result="shape"/>
</filter>
<linearGradient id="paint0_linear_173_3854" x1="37.5" y1="3" x2="37.5" y2="64" gradientUnits="userSpaceOnUse">
<stop stop-color="#D5BCC8"/>
<stop offset="1" stop-color="#CACFD2"/>
</linearGradient>
</defs>
</svg>
